<mxfile host="app.diagrams.net" modified="2021-04-18T04:04:00.495Z" agent="5.0 (Windows NT 10.0; Win64; x64) AppleWebKit/537.36 (KHTML, like Gecko) Chrome/89.0.4389.128 Safari/537.36" etag="gREv1dL_x7Ve5jNdXsuz" version="14.6.1" type="github">
  <diagram id="KTPPbLPX28ITHKzBZeND" name="Page-1">
    <mxGraphModel dx="868" dy="488" grid="1" gridSize="10" guides="1" tooltips="1" connect="1" arrows="1" fold="1" page="1" pageScale="1" pageWidth="850" pageHeight="1100" math="0" shadow="0">
      <root>
        <mxCell id="0" />
        <mxCell id="1" parent="0" />
        <mxCell id="XX87ci29TQKU1XhGhpYF-19" style="edgeStyle=orthogonalEdgeStyle;rounded=0;orthogonalLoop=1;jettySize=auto;html=1;exitX=0.5;exitY=1;exitDx=0;exitDy=0;entryX=0.5;entryY=0;entryDx=0;entryDy=0;" edge="1" parent="1" source="XX87ci29TQKU1XhGhpYF-1" target="XX87ci29TQKU1XhGhpYF-12">
          <mxGeometry relative="1" as="geometry" />
        </mxCell>
        <mxCell id="XX87ci29TQKU1XhGhpYF-1" value="" style="rounded=0;whiteSpace=wrap;html=1;" vertex="1" parent="1">
          <mxGeometry x="440" y="100" width="80" height="60" as="geometry" />
        </mxCell>
        <mxCell id="XX87ci29TQKU1XhGhpYF-3" value="2" style="rounded=0;whiteSpace=wrap;html=1;" vertex="1" parent="1">
          <mxGeometry x="452.5" y="105" width="55" height="50" as="geometry" />
        </mxCell>
        <mxCell id="XX87ci29TQKU1XhGhpYF-24" style="edgeStyle=orthogonalEdgeStyle;rounded=0;orthogonalLoop=1;jettySize=auto;html=1;exitX=0;exitY=0.5;exitDx=0;exitDy=0;entryX=1;entryY=0.5;entryDx=0;entryDy=0;" edge="1" parent="1" source="XX87ci29TQKU1XhGhpYF-5" target="XX87ci29TQKU1XhGhpYF-14">
          <mxGeometry relative="1" as="geometry" />
        </mxCell>
        <mxCell id="XX87ci29TQKU1XhGhpYF-5" value="" style="rounded=0;whiteSpace=wrap;html=1;" vertex="1" parent="1">
          <mxGeometry x="247.5" y="315" width="80" height="60" as="geometry" />
        </mxCell>
        <mxCell id="XX87ci29TQKU1XhGhpYF-6" value="3" style="rounded=0;whiteSpace=wrap;html=1;" vertex="1" parent="1">
          <mxGeometry x="260" y="320" width="55" height="50" as="geometry" />
        </mxCell>
        <mxCell id="XX87ci29TQKU1XhGhpYF-17" style="edgeStyle=orthogonalEdgeStyle;rounded=0;orthogonalLoop=1;jettySize=auto;html=1;exitX=1;exitY=0.5;exitDx=0;exitDy=0;" edge="1" parent="1" source="XX87ci29TQKU1XhGhpYF-7" target="XX87ci29TQKU1XhGhpYF-10">
          <mxGeometry relative="1" as="geometry" />
        </mxCell>
        <mxCell id="XX87ci29TQKU1XhGhpYF-7" value="" style="rounded=0;whiteSpace=wrap;html=1;" vertex="1" parent="1">
          <mxGeometry x="120" y="95" width="80" height="60" as="geometry" />
        </mxCell>
        <mxCell id="XX87ci29TQKU1XhGhpYF-8" value="1" style="rounded=0;whiteSpace=wrap;html=1;" vertex="1" parent="1">
          <mxGeometry x="132.5" y="100" width="55" height="50" as="geometry" />
        </mxCell>
        <mxCell id="XX87ci29TQKU1XhGhpYF-10" value="" style="rhombus;whiteSpace=wrap;html=1;" vertex="1" parent="1">
          <mxGeometry x="260" y="65" width="120" height="100" as="geometry" />
        </mxCell>
        <mxCell id="XX87ci29TQKU1XhGhpYF-11" value="A" style="rhombus;whiteSpace=wrap;html=1;" vertex="1" parent="1">
          <mxGeometry x="280" y="75" width="80" height="80" as="geometry" />
        </mxCell>
        <mxCell id="XX87ci29TQKU1XhGhpYF-12" value="" style="rhombus;whiteSpace=wrap;html=1;" vertex="1" parent="1">
          <mxGeometry x="380" y="270" width="120" height="100" as="geometry" />
        </mxCell>
        <mxCell id="XX87ci29TQKU1XhGhpYF-13" value="B" style="rhombus;whiteSpace=wrap;html=1;" vertex="1" parent="1">
          <mxGeometry x="400" y="280" width="80" height="80" as="geometry" />
        </mxCell>
        <mxCell id="XX87ci29TQKU1XhGhpYF-14" value="" style="rhombus;whiteSpace=wrap;html=1;" vertex="1" parent="1">
          <mxGeometry x="90" y="250" width="120" height="100" as="geometry" />
        </mxCell>
        <mxCell id="XX87ci29TQKU1XhGhpYF-15" value="C" style="rhombus;whiteSpace=wrap;html=1;" vertex="1" parent="1">
          <mxGeometry x="110" y="260" width="80" height="80" as="geometry" />
        </mxCell>
        <mxCell id="XX87ci29TQKU1XhGhpYF-18" value="" style="endArrow=none;html=1;exitX=1;exitY=0.5;exitDx=0;exitDy=0;entryX=0;entryY=0.5;entryDx=0;entryDy=0;" edge="1" parent="1" source="XX87ci29TQKU1XhGhpYF-10" target="XX87ci29TQKU1XhGhpYF-1">
          <mxGeometry width="50" height="50" relative="1" as="geometry">
            <mxPoint x="400" y="240" as="sourcePoint" />
            <mxPoint x="450" y="190" as="targetPoint" />
          </mxGeometry>
        </mxCell>
        <mxCell id="XX87ci29TQKU1XhGhpYF-21" value="" style="endArrow=none;html=1;entryX=0.5;entryY=1;entryDx=0;entryDy=0;" edge="1" parent="1" source="XX87ci29TQKU1XhGhpYF-14" target="XX87ci29TQKU1XhGhpYF-8">
          <mxGeometry width="50" height="50" relative="1" as="geometry">
            <mxPoint x="190" y="250" as="sourcePoint" />
            <mxPoint x="240" y="200" as="targetPoint" />
          </mxGeometry>
        </mxCell>
        <mxCell id="XX87ci29TQKU1XhGhpYF-22" value="" style="endArrow=none;html=1;entryX=0.125;entryY=0.61;entryDx=0;entryDy=0;entryPerimeter=0;" edge="1" parent="1" source="XX87ci29TQKU1XhGhpYF-5" target="XX87ci29TQKU1XhGhpYF-12">
          <mxGeometry width="50" height="50" relative="1" as="geometry">
            <mxPoint x="350" y="330" as="sourcePoint" />
            <mxPoint x="400" y="280" as="targetPoint" />
          </mxGeometry>
        </mxCell>
      </root>
    </mxGraphModel>
  </diagram>
</mxfile>
